PathFileType	4	(X/Y/Z)	OpenSim_Sub05_CSStiffKnee_Magnet.trc
DataRate	CameraRate	NumFrames	NumMarkers	Units	OrigDataRate	OrigDataStartFrame	OrigNumFrames
100	100	33	8	m	100	9843	11248
Frame#	Time	torso_imu_offset_imu	pelvis_imu_offset_imu	tibia_r_imu_offset_imu	femur_r_imu_offset_imu	tibia_l_imu_offset_imu	femur_l_imu_offset_imu	toes_r_imu_offset_imu	toes_l_imu_offset_imu
				X1	Y1	Z1	X2	Y2	Z2	X3	Y3	Z3	X4	Y4	Z4	X5	Y5	Z5	X6	Y6	Z6	X7	Y7	Z7	X8		Y8	Z8	

9843	98.42000000	-0.87326082	-0.25759642	0.15046617	-0.66543791	0.17092528	-0.64207352	-0.21347169	-0.75061706	-0.01129601	-0.87346817	0.00906335	0.01894906	-0.62879754	0.43096447	0.27187681	-0.55119345	0.27745108	0.26389762	-0.73989034	-0.16486075	0.24561941	-0.66940035	-0.21322021	-0.38228193
9844	98.43000000	-0.87269681	-0.25524314	0.14908297	-0.66103996	0.17202637	-0.64173127	-0.23770907	-0.73227926	-0.00963379	-0.87295544	0.01554571	0.01247506	-0.62901057	0.44243430	0.26948981	-0.55323993	0.28026336	0.26970392	-0.74854704	-0.15795522	0.20768718	-0.66792496	-0.22153654	-0.37955004
9845	98.44000000	-0.87054043	-0.26082826	0.14754807	-0.66336476	0.16947098	-0.64131191	-0.26540903	-0.72343314	-0.01019835	-0.87570695	0.02421205	0.01388494	-0.62328866	0.43967807	0.27095243	-0.55197621	0.28316700	0.27667171	-0.75859850	-0.15177387	0.17366261	-0.67174680	-0.21707011	-0.38009728
9846	98.45000000	-0.87326134	-0.26421818	0.14970014	-0.66307137	0.17361784	-0.64366734	-0.29593033	-0.71358719	-0.00441382	-0.87861176	0.03259547	0.01896142	-0.62008491	0.44197967	0.27393009	-0.54885100	0.28876029	0.27552462	-0.76665133	-0.13918567	0.13962376	-0.67063098	-0.21563463	-0.37981623
9847	98.46000000	-0.87591607	-0.26451364	0.14912875	-0.66286576	0.17756166	-0.64141096	-0.33071704	-0.69849298	-0.00452538	-0.87736453	0.03900880	0.01332702	-0.61884595	0.44926101	0.27932333	-0.54354393	0.28875186	0.28101830	-0.77684829	-0.12919181	0.09441087	-0.67212692	-0.21983176	-0.37322218
9848	98.47000000	-0.86776350	-0.26729588	0.15027172	-0.66492720	0.17564588	-0.65049156	-0.36362438	-0.68113000	-0.00662752	-0.87484052	0.04205043	0.01083025	-0.61370092	0.45628731	0.27802498	-0.53551916	0.29091253	0.28545903	-0.78528875	-0.12752719	0.05457202	-0.67360599	-0.21671434	-0.37476131
9849	98.48000000	-0.86750755	-0.26688758	0.14642350	-0.66173907	0.17454382	-0.64770443	-0.39496233	-0.65947600	-0.00851352	-0.87522865	0.04248397	0.01336147	-0.61070901	0.45962876	0.26906839	-0.54194819	0.29665289	0.28152031	-0.79046170	-0.11695729	0.01441943	-0.67315339	-0.22074251	-0.37379495
9850	98.49000000	-0.86954354	-0.26625731	0.14916691	-0.66004141	0.17525296	-0.64391410	-0.42939155	-0.63967549	-0.00930415	-0.87592550	0.03746407	0.01909826	-0.60874718	0.45928728	0.26725271	-0.53499945	0.30302441	0.28090399	-0.78614045	-0.11195053	-0.03717574	-0.67311895	-0.21958926	-0.36949965
9851	98.50000000	-0.86711740	-0.27092581	0.15443011	-0.65656068	0.17275548	-0.64965742	-0.46489497	-0.61428040	-0.00126612	-0.87769386	0.03348889	0.02126737	-0.60618777	0.46555076	0.27690915	-0.52618362	0.30393209	0.28746099	-0.78153024	-0.10342471	-0.08248061	-0.67395344	-0.22099807	-0.37546983
9852	98.51000000	-0.86858921	-0.27772358	0.14949389	-0.65271048	0.17010214	-0.64869372	-0.49294896	-0.58578903	-0.00067750	-0.87498906	0.03591486	0.02922325	-0.60617848	0.47297243	0.28245819	-0.52399233	0.30943361	0.29410505	-0.78091495	-0.09199676	-0.12603308	-0.67751565	-0.22283257	-0.37410354
9853	98.52000000	-0.87046837	-0.27552701	0.15491258	-0.65331376	0.17127885	-0.64793434	-0.52159170	-0.55742596	-0.00316714	-0.87228888	0.02759215	0.03520901	-0.60206157	0.47547551	0.27386058	-0.52146408	0.31950847	0.29380742	-0.77565745	-0.08403699	-0.17067957	-0.68168944	-0.22013026	-0.37472766
9854	98.53000000	-0.86724982	-0.27223675	0.15605793	-0.65389633	0.16791307	-0.66026604	-0.55548111	-0.53048661	0.00174754	-0.87218266	0.01600791	0.03916860	-0.59937574	0.47864154	0.27062735	-0.51551985	0.32479365	0.30379702	-0.76730336	-0.06959478	-0.21047503	-0.68102458	-0.22388727	-0.38076847
9855	98.54000000	-0.86710712	-0.27575497	0.15142858	-0.64876352	0.16143298	-0.66287499	-0.58326612	-0.50373272	-0.00330552	-0.86621499	0.00331558	0.04847309	-0.59488972	0.48352495	0.27143664	-0.51045064	0.32653881	0.30875298	-0.75788237	-0.05454500	-0.24416583	-0.67941911	-0.22337042	-0.38137398
9856	98.55000000	-0.87089647	-0.27611023	0.15064214	-0.65012683	0.16053739	-0.65270974	-0.59912502	-0.47481587	-0.01309357	-0.86440514	-0.00851810	0.05697893	-0.59012875	0.48691764	0.27628508	-0.51091222	0.32855386	0.30503192	-0.74291765	-0.03543632	-0.27056390	-0.68073874	-0.22195544	-0.37981012
9857	98.56000000	-0.86674490	-0.27825036	0.15185663	-0.65606454	0.15707896	-0.65176081	-0.61642390	-0.44887305	-0.02021857	-0.86247494	-0.01730756	0.06391157	-0.58762452	0.49565447	0.27985591	-0.50690272	0.33959252	0.31734098	-0.73556802	-0.02227445	-0.30327620	-0.68432768	-0.22209046	-0.37941555
9858	98.57000000	-0.86823845	-0.28181796	0.15480310	-0.65469338	0.15276702	-0.65049578	-0.63830474	-0.42552467	-0.02831765	-0.85750885	-0.03388427	0.07192443	-0.58277866	0.50235873	0.27751053	-0.50468889	0.34298333	0.31476404	-0.72417400	-0.01245875	-0.33417167	-0.68790665	-0.22296534	-0.37538393
9859	98.58000000	-0.87175593	-0.28393256	0.15489560	-0.65460693	0.14814346	-0.65604746	-0.65576712	-0.40051166	-0.03396308	-0.85250954	-0.04384123	0.07697835	-0.57927821	0.50607934	0.27566048	-0.49866485	0.34462403	0.31471585	-0.70947259	-0.00134619	-0.36610960	-0.68919797	-0.22619654	-0.37225149
9860	98.59000000	-0.86702521	-0.28505816	0.15231114	-0.65586652	0.14653500	-0.65259013	-0.66895551	-0.37400920	-0.04237404	-0.84451475	-0.04874705	0.07877979	-0.57124012	0.51168364	0.27783641	-0.49332872	0.34962494	0.31803492	-0.69373639	0.00142488	-0.39395541	-0.68634595	-0.23162350	-0.37547862
9861	98.60000000	-0.86427485	-0.28503216	0.15089710	-0.65649898	0.14459292	-0.64737838	-0.67240847	-0.35577041	-0.04016238	-0.84426034	-0.05044758	0.08275561	-0.56847020	0.51853723	0.27372974	-0.48874591	0.35450259	0.31686259	-0.67827347	0.01471916	-0.41247112	-0.69087646	-0.22426309	-0.37034328
9862	98.61000000	-0.86764888	-0.28401059	0.15312646	-0.65884319	0.14057120	-0.65245686	-0.68294549	-0.34215952	-0.03937883	-0.84588813	-0.05167800	0.08629091	-0.56054908	0.52577207	0.26585624	-0.48702240	0.35611395	0.31808070	-0.67138709	0.02585074	-0.43095460	-0.69593097	-0.21778889	-0.36925489
9863	98.62000000	-0.86871201	-0.28156236	0.15822818	-0.66076512	0.14034964	-0.65612320	-0.68919306	-0.33351414	-0.04158055	-0.84539853	-0.05042655	0.09588326	-0.55014185	0.53709825	0.26776519	-0.48461238	0.36618149	0.31282459	-0.66522965	0.02876024	-0.43753372	-0.69837531	-0.22690685	-0.36470442
9864	98.63000000	-0.86767646	-0.28044560	0.15274381	-0.65646969	0.13884924	-0.65630747	-0.68586088	-0.33122966	-0.04109358	-0.84579014	-0.04095829	0.09981554	-0.54933788	0.54254093	0.27032026	-0.47802983	0.37495908	0.31349618	-0.66677718	0.02478766	-0.44384915	-0.70298131	-0.22700097	-0.35692604
9865	98.64000000	-0.87157952	-0.28171550	0.15102470	-0.65305213	0.13945754	-0.65938018	-0.68946329	-0.33012122	-0.04929473	-0.83876229	-0.03183329	0.10019008	-0.54172261	0.55009177	0.26801741	-0.47732031	0.38126443	0.30733619	-0.67205424	0.00718923	-0.44145793	-0.70106207	-0.22534851	-0.35340466
9866	98.65000000	-0.86857033	-0.28312341	0.15020064	-0.65151656	0.13800598	-0.66021169	-0.68949322	-0.33790757	-0.04810648	-0.83852733	-0.02903318	0.10080214	-0.53475042	0.56086336	0.26570385	-0.47325332	0.38706158	0.30490505	-0.67848285	-0.00767582	-0.42364963	-0.70675715	-0.22588347	-0.34734282
9867	98.66000000	-0.86529155	-0.28183674	0.14902123	-0.64734502	0.13691805	-0.66071192	-0.68326947	-0.35154286	-0.04377135	-0.84060503	-0.02289926	0.10530286	-0.52523984	0.56845542	0.26044644	-0.47149493	0.39080312	0.30715011	-0.69595562	-0.01032746	-0.39781568	-0.71220444	-0.21840784	-0.34172656
9868	98.67000000	-0.86929911	-0.28661299	0.14772767	-0.64637338	0.13710646	-0.66535561	-0.66785342	-0.36999650	-0.04041726	-0.83213170	-0.01288204	0.11210928	-0.51190261	0.57345858	0.26147991	-0.46346234	0.40409657	0.30576053	-0.70261168	-0.02010583	-0.37845840	-0.71880945	-0.21771341	-0.33723433
9869	98.68000000	-0.86646513	-0.28624892	0.14034721	-0.64112422	0.13786763	-0.67383701	-0.65932587	-0.38746502	-0.03323760	-0.82967619	-0.01086872	0.11969063	-0.51043046	0.57963589	0.25829919	-0.46179584	0.40348512	0.30177854	-0.70151355	-0.03354796	-0.36996797	-0.71980837	-0.22113153	-0.32572286
9870	98.69000000	-0.86854510	-0.28320357	0.14012712	-0.63822035	0.13387154	-0.67622186	-0.65513912	-0.39841018	-0.02112208	-0.82947943	-0.00290959	0.12976921	-0.50866206	0.59002188	0.25509582	-0.46260754	0.40829422	0.29941207	-0.71341252	-0.03582733	-0.36438797	-0.72355219	-0.21972099	-0.30848159
9871	98.70000000	-0.86977195	-0.28461117	0.14100343	-0.63411925	0.13111898	-0.67931942	-0.64513379	-0.40680153	-0.00828070	-0.82774998	0.00568971	0.12609389	-0.49718979	0.60110686	0.25549577	-0.45352023	0.41576162	0.29922044	-0.71992202	-0.04067271	-0.34938990	-0.72805548	-0.21633015	-0.29615454
9872	98.71000000	-0.86910096	-0.28834261	0.13732116	-0.62709103	0.13419406	-0.67748508	-0.63862158	-0.41972558	-0.00398275	-0.83117153	0.00566289	0.13273146	-0.48820740	0.61245205	0.25169734	-0.45362777	0.41239305	0.30140778	-0.71784303	-0.04461631	-0.34214580	-0.73370278	-0.21253480	-0.28070187
9873	98.72000000	-0.87013121	-0.29025964	0.13264882	-0.62958101	0.12913442	-0.68367800	-0.63512663	-0.42720616	0.01151596	-0.83016951	0.00410086	0.14363789	-0.48412598	0.61491708	0.25025638	-0.45471731	0.42166531	0.29895242	-0.72099259	-0.04889941	-0.34242029	-0.74820605	-0.20522790	-0.25239324
9874	98.73000000	-0.86515583	-0.29131021	0.12923318	-0.63092143	0.12243265	-0.69333218	-0.62720740	-0.43590477	0.03345179	-0.82392081	0.00433405	0.14632384	-0.47488629	0.62203202	0.24443727	-0.45058663	0.43201296	0.29270002	-0.72118435	-0.05177792	-0.34041904	-0.75052404	-0.20095921	-0.22931844
9875	98.74000000	-0.86614597	-0.29108039	0.12806683	-0.62746428	0.12439225	-0.68666980	-0.61651103	-0.45081738	0.03464113	-0.81970537	-0.00196657	0.15424701	-0.46444324	0.63038447	0.23976567	-0.44948031	0.43887511	0.28631986	-0.71696253	-0.05477817	-0.34180266	-0.75659404	-0.19329764	-0.20856926
